<svg xmlns="http://www.w3.org/2000/svg" width="255" height="217" viewBox="0 0 255 217" fill="none"><SCRIPT xmlns="" id="allow-copy_script">(function agent() {
    let unlock = false
    document.addEventListener('allow_copy', (event) =&gt; {
      unlock = event.detail.unlock
    })

    const copyEvents = [
      'copy',
      'cut',
      'contextmenu',
      'selectstart',
      'mousedown',
      'mouseup',
      'mousemove',
      'keydown',
      'keypress',
      'keyup',
    ]
    const rejectOtherHandlers = (e) =&gt; {
      if (unlock) {
        e.stopPropagation()
        if (e.stopImmediatePropagation) e.stopImmediatePropagation()
      }
    }
    copyEvents.forEach((evt) =&gt; {
      document.documentElement.addEventListener(evt, rejectOtherHandlers, {
        capture: true,
      })
    })
  })()</SCRIPT>
<circle cx="3.5" cy="3.5" r="3.5" fill="#35736E"/>
<circle cx="34.5" cy="3.5" r="3.5" fill="#35736E"/>
<circle cx="65.5" cy="3.5" r="3.5" fill="#35736E"/>
<circle cx="96.5" cy="3.5" r="3.5" fill="#35736E"/>
<circle cx="127.5" cy="3.5" r="3.5" fill="#35736E"/>
<circle cx="158.5" cy="3.5" r="3.5" fill="#35736E"/>
<circle cx="189.5" cy="3.5" r="3.5" fill="#35736E"/>
<circle cx="220.5" cy="3.5" r="3.5" fill="#35736E"/>
<circle cx="251.5" cy="3.5" r="3.5" fill="#35736E"/>
<circle cx="3.5" cy="33.5" r="3.5" fill="#35736E"/>
<circle cx="34.5" cy="33.5" r="3.5" fill="#35736E"/>
<circle cx="65.5" cy="33.5" r="3.5" fill="#35736E"/>
<circle cx="96.5" cy="33.5" r="3.5" fill="#35736E"/>
<circle cx="127.5" cy="33.5" r="3.5" fill="#35736E"/>
<circle cx="158.5" cy="33.5" r="3.5" fill="#35736E"/>
<circle cx="189.5" cy="33.5" r="3.5" fill="#35736E"/>
<circle cx="220.5" cy="33.5" r="3.5" fill="#35736E"/>
<circle cx="251.5" cy="33.5" r="3.5" fill="#35736E"/>
<circle cx="3.5" cy="63.5" r="3.5" fill="#35736E"/>
<circle cx="34.5" cy="63.5" r="3.5" fill="#35736E"/>
<circle cx="65.5" cy="63.5" r="3.5" fill="#35736E"/>
<circle cx="96.5" cy="63.5" r="3.5" fill="#35736E"/>
<circle cx="127.5" cy="63.5" r="3.5" fill="#35736E"/>
<circle cx="158.5" cy="63.5" r="3.5" fill="#35736E"/>
<circle cx="189.5" cy="63.5" r="3.5" fill="#35736E"/>
<circle cx="220.5" cy="63.5" r="3.5" fill="#35736E"/>
<circle cx="251.5" cy="63.5" r="3.5" fill="#35736E"/>
<circle cx="3.5" cy="93.5" r="3.5" fill="#35736E"/>
<circle cx="34.5" cy="93.5" r="3.5" fill="#35736E"/>
<circle cx="65.5" cy="93.5" r="3.5" fill="#35736E"/>
<circle cx="96.5" cy="93.5" r="3.5" fill="#35736E"/>
<circle cx="127.5" cy="93.5" r="3.5" fill="#35736E"/>
<circle cx="158.5" cy="93.5" r="3.5" fill="#35736E"/>
<circle cx="189.5" cy="93.5" r="3.5" fill="#35736E"/>
<circle cx="220.5" cy="93.5" r="3.5" fill="#35736E"/>
<circle cx="251.5" cy="93.5" r="3.5" fill="#35736E"/>
<circle cx="3.5" cy="123.5" r="3.5" fill="#35736E"/>
<circle cx="34.5" cy="123.5" r="3.5" fill="#35736E"/>
<circle cx="65.5" cy="123.5" r="3.5" fill="#35736E"/>
<circle cx="96.5" cy="123.5" r="3.5" fill="#35736E"/>
<circle cx="127.5" cy="123.5" r="3.5" fill="#35736E"/>
<circle cx="158.5" cy="123.5" r="3.5" fill="#35736E"/>
<circle cx="189.5" cy="123.5" r="3.5" fill="#35736E"/>
<circle cx="220.5" cy="123.5" r="3.5" fill="#35736E"/>
<circle cx="251.5" cy="123.5" r="3.5" fill="#35736E"/>
<circle cx="3.5" cy="153.5" r="3.5" fill="#35736E"/>
<circle cx="34.5" cy="153.5" r="3.5" fill="#35736E"/>
<circle cx="65.5" cy="153.5" r="3.5" fill="#35736E"/>
<circle cx="96.5" cy="153.5" r="3.5" fill="#35736E"/>
<circle cx="127.5" cy="153.5" r="3.5" fill="#35736E"/>
<circle cx="158.5" cy="153.5" r="3.5" fill="#35736E"/>
<circle cx="189.5" cy="153.5" r="3.5" fill="#35736E"/>
<circle cx="220.5" cy="153.5" r="3.5" fill="#35736E"/>
<circle cx="251.5" cy="153.5" r="3.5" fill="#35736E"/>
<circle cx="3.5" cy="183.5" r="3.5" fill="#35736E"/>
<circle cx="34.5" cy="183.5" r="3.5" fill="#35736E"/>
<circle cx="65.5" cy="183.5" r="3.5" fill="#35736E"/>
<circle cx="96.5" cy="183.5" r="3.5" fill="#35736E"/>
<circle cx="127.5" cy="183.5" r="3.5" fill="#35736E"/>
<circle cx="158.5" cy="183.5" r="3.5" fill="#35736E"/>
<circle cx="189.5" cy="183.5" r="3.5" fill="#35736E"/>
<circle cx="220.5" cy="183.5" r="3.5" fill="#35736E"/>
<circle cx="251.5" cy="183.5" r="3.5" fill="#35736E"/>
<circle cx="3.5" cy="213.5" r="3.5" fill="#35736E"/>
<circle cx="34.5" cy="213.5" r="3.5" fill="#35736E"/>
<circle cx="65.5" cy="213.5" r="3.5" fill="#35736E"/>
<circle cx="96.5" cy="213.5" r="3.5" fill="#35736E"/>
<circle cx="127.5" cy="213.5" r="3.5" fill="#35736E"/>
<circle cx="158.5" cy="213.5" r="3.5" fill="#35736E"/>
<circle cx="189.5" cy="213.5" r="3.5" fill="#35736E"/>
<circle cx="220.5" cy="213.5" r="3.5" fill="#35736E"/>
<circle cx="251.5" cy="213.5" r="3.5" fill="#35736E"/>
</svg>